<?xml version="1.0" encoding="UTF-8" standalone="no"?>
<!-- Created with Inkscape (http://www.inkscape.org/) -->

<svg
   xmlns:dc="http://purl.org/dc/elements/1.1/"
   xmlns:cc="http://creativecommons.org/ns#"
   xmlns:rdf="http://www.w3.org/1999/02/22-rdf-syntax-ns#"
   xmlns:svg="http://www.w3.org/2000/svg"
   xmlns="http://www.w3.org/2000/svg"
   xmlns:sodipodi="http://sodipodi.sourceforge.net/DTD/sodipodi-0.dtd"
   xmlns:inkscape="http://www.inkscape.org/namespaces/inkscape"
   width="227.38586"
   height="75.761436"
   id="svg2"
   sodipodi:version="0.32"
   inkscape:version="0.48.3.1 r9886"
   sodipodi:docname="dammIT_logo_backgrounds_02.svg"
   inkscape:output_extension="org.inkscape.output.svg.inkscape"
   inkscape:export-filename="/home/mbscholt/files/projects/html/dammit/images/dev/0.6_logo/dammIT_rietsigaar.jpg.png"
   inkscape:export-xdpi="90"
   inkscape:export-ydpi="90"
   version="1.1">
  <defs
     id="defs4">
    <inkscape:perspective
       sodipodi:type="inkscape:persp3d"
       inkscape:vp_x="0 : 526.18109 : 1"
       inkscape:vp_y="0 : 1000 : 0"
       inkscape:vp_z="744.09448 : 526.18109 : 1"
       inkscape:persp3d-origin="372.04724 : 350.78739 : 1"
       id="perspective10" />
    <inkscape:perspective
       id="perspective2427"
       inkscape:persp3d-origin="372.04724 : 350.78739 : 1"
       inkscape:vp_z="744.09448 : 526.18109 : 1"
       inkscape:vp_y="0 : 1000 : 0"
       inkscape:vp_x="0 : 526.18109 : 1"
       sodipodi:type="inkscape:persp3d" />
    <inkscape:perspective
       id="perspective2440"
       inkscape:persp3d-origin="372.04724 : 350.78739 : 1"
       inkscape:vp_z="744.09448 : 526.18109 : 1"
       inkscape:vp_y="0 : 1000 : 0"
       inkscape:vp_x="0 : 526.18109 : 1"
       sodipodi:type="inkscape:persp3d" />
    <inkscape:perspective
       id="perspective2513"
       inkscape:persp3d-origin="372.04724 : 350.78739 : 1"
       inkscape:vp_z="744.09448 : 526.18109 : 1"
       inkscape:vp_y="0 : 1000 : 0"
       inkscape:vp_x="0 : 526.18109 : 1"
       sodipodi:type="inkscape:persp3d" />
    <inkscape:perspective
       id="perspective2546"
       inkscape:persp3d-origin="372.04724 : 350.78739 : 1"
       inkscape:vp_z="744.09448 : 526.18109 : 1"
       inkscape:vp_y="0 : 1000 : 0"
       inkscape:vp_x="0 : 526.18109 : 1"
       sodipodi:type="inkscape:persp3d" />
    <inkscape:perspective
       id="perspective2559"
       inkscape:persp3d-origin="372.04724 : 350.78739 : 1"
       inkscape:vp_z="744.09448 : 526.18109 : 1"
       inkscape:vp_y="0 : 1000 : 0"
       inkscape:vp_x="0 : 526.18109 : 1"
       sodipodi:type="inkscape:persp3d" />
    <inkscape:perspective
       id="perspective2965"
       inkscape:persp3d-origin="0.5 : 0.33333333 : 1"
       inkscape:vp_z="1 : 0.5 : 1"
       inkscape:vp_y="0 : 1000 : 0"
       inkscape:vp_x="0 : 0.5 : 1"
       sodipodi:type="inkscape:persp3d" />
    <inkscape:perspective
       id="perspective3008"
       inkscape:persp3d-origin="0.5 : 0.33333333 : 1"
       inkscape:vp_z="1 : 0.5 : 1"
       inkscape:vp_y="0 : 1000 : 0"
       inkscape:vp_x="0 : 0.5 : 1"
       sodipodi:type="inkscape:persp3d" />
    <clipPath
       clipPathUnits="userSpaceOnUse"
       id="clipPath3854">
      <rect
         style="fill:#0000ff;fill-rule:evenodd;stroke:#000000;stroke-width:1;stroke-linecap:butt;stroke-linejoin:miter;stroke-miterlimit:4;stroke-opacity:1;stroke-dasharray:none"
         id="rect3856"
         width="227.89093"
         height="76.266518"
         x="185.71428"
         y="572.53973"
         ry="0" />
    </clipPath>
  </defs>
  <sodipodi:namedview
     id="base"
     pagecolor="#ffffff"
     bordercolor="#666666"
     borderopacity="1.0"
     gridtolerance="10000"
     guidetolerance="10"
     objecttolerance="10"
     inkscape:pageopacity="0.0"
     inkscape:pageshadow="2"
     inkscape:zoom="5.6"
     inkscape:cx="102.60264"
     inkscape:cy="39.919625"
     inkscape:document-units="px"
     inkscape:current-layer="layer1"
     showgrid="false"
     showguides="true"
     inkscape:guide-bbox="true"
     inkscape:window-width="1600"
     inkscape:window-height="874"
     inkscape:window-x="0"
     inkscape:window-y="3"
     inkscape:window-maximized="1"
     fit-margin-top="0"
     fit-margin-left="0"
     fit-margin-right="0"
     fit-margin-bottom="0">
    <sodipodi:guide
       orientation="0,1"
       position="153.21429,55.581852"
       id="guide3158" />
    <sodipodi:guide
       orientation="0,1"
       position="6.4251953e-06,107.36756"
       id="guide2971" />
    <sodipodi:guide
       orientation="1,0"
       position="6.4251953e-06,107.36756"
       id="guide2975" />
    <sodipodi:guide
       orientation="1,0"
       position="-9.9999936,96.117562"
       id="guide2998" />
  </sodipodi:namedview>
  <metadata
     id="metadata7">
    <rdf:RDF>
      <cc:Work
         rdf:about="">
        <dc:format>image/svg+xml</dc:format>
        <dc:type
           rdf:resource="http://purl.org/dc/dcmitype/StillImage" />
        <dc:title></dc:title>
      </cc:Work>
    </rdf:RDF>
  </metadata>
  <g
     inkscape:label="Layer 1"
     inkscape:groupmode="layer"
     id="layer1"
     transform="translate(-185.71428,-572.53973)">
    <rect
       style="fill:#ffffff"
       id="rect2412"
       width="237.38585"
       height="75.761436"
       x="175.71429"
       y="572.53973"
       ry="5.7080541"
       clip-path="url(#clipPath3854)" />
    <path
       style="font-size:75.66469574px;font-style:normal;font-variant:normal;font-weight:normal;font-stretch:normal;text-align:start;line-height:125%;writing-mode:lr-tb;text-anchor:start;fill:#39414f;fill-opacity:1;stroke:none;font-family:STHeiti;-inkscape-font-specification:STHeiti"
       d="m 224.56653,592.71932 0,36.95549 -3.36416,0 0,-4.56923 c -3.04617,3.64869 -6.54422,5.47303 -10.49416,5.47303 -3.91648,0 -7.21369,-1.38917 -9.89161,-4.16753 -2.67794,-2.77835 -4.0169,-6.10903 -4.0169,-9.99205 0,-3.88298 1.3557,-7.19692 4.06711,-9.94183 2.7114,-2.77832 5.95839,-4.1675 9.74098,-4.16753 4.35163,3e-5 7.88315,1.85785 10.59458,5.57345 l 0,-15.1638 3.36416,0 m -3.16331,23.80014 c -3e-5,-3.04613 -1.00425,-5.62364 -3.01268,-7.73254 -2.00847,-2.10885 -4.51903,-3.16328 -7.53168,-3.16331 -3.0127,3e-5 -5.54,1.08793 -7.58191,3.26373 -2.00846,2.14237 -3.01268,4.68641 -3.01267,7.63212 -1e-5,2.91226 1.03769,5.4563 3.1131,7.63211 2.07538,2.17583 4.519,3.26374 7.33083,3.26373 2.8453,10e-6 5.33911,-1.02096 7.48148,-3.06289 2.14233,-2.07538 3.2135,-4.68637 3.21353,-7.83295 m 37.43721,-13.50683 0,26.66218 -3.36416,0 0,-4.56923 c -3.04617,3.64869 -6.52749,5.47303 -10.44395,5.47303 -3.91649,0 -7.23043,-1.38917 -9.94183,-4.16753 -2.67793,-2.81182 -4.01689,-6.1425 -4.01689,-9.99205 0,-3.88298 1.35569,-7.19692 4.06711,-9.94183 2.7114,-2.77832 5.95838,-4.1675 9.74098,-4.16753 4.35162,3e-5 7.88315,1.85785 10.59458,5.57345 l 0,-4.87049 3.36416,0 m -3.16332,13.45661 c -3e-5,-3.04613 -1.02099,-5.60689 -3.06289,-7.68232 -2.04194,-2.10885 -4.5525,-3.16328 -7.53168,-3.16331 -2.94575,3e-5 -5.43957,1.08793 -7.48148,3.26373 -2.04193,2.14237 -3.0629,4.68641 -3.06289,7.63212 -1e-5,2.94574 1.03769,5.50651 3.11309,7.68232 2.0754,2.14235 4.55248,3.21353 7.43128,3.21352 2.91223,10e-6 5.40606,-1.03769 7.48147,-3.1131 2.07538,-2.07539 3.11307,-4.68637 3.1131,-7.83296 m 10.92566,-13.45661 3.41437,0 0,4.61943 c 2.37665,-3.54824 5.4228,-5.32236 9.13845,-5.32239 1.97495,3e-5 3.73235,0.56909 5.27218,1.70718 1.57326,1.10468 2.6277,2.67796 3.16331,4.71986 1.10462,-2.07537 2.51053,-3.6654 4.21774,-4.77007 1.70716,-1.10462 3.66539,-1.65694 5.87472,-1.65697 2.24273,3e-5 4.26792,0.87036 6.07557,2.61099 1.80756,1.7072 2.71136,5.10483 2.7114,10.19288 l 0,14.56127 -3.51479,0 0,-14.56127 c -4e-5,-2.4436 -0.15067,-4.23446 -0.45189,-5.3726 -0.30131,-1.17158 -0.95406,-2.14233 -1.95825,-2.91225 -1.00425,-0.80336 -2.34323,-1.20505 -4.0169,-1.20508 -1.64026,3e-5 -3.18007,0.55235 -4.61943,1.65698 -1.43943,1.10467 -2.42691,2.51058 -2.96247,4.21774 -0.53561,1.7072 -0.8034,4.28471 -0.80338,7.73253 l 0,10.44395 -3.36416,0 0,-13.65747 c -2e-5,-2.84528 -0.15064,-4.87047 -0.45189,-6.07556 -0.30129,-1.23852 -0.97078,-2.25948 -2.00845,-3.06289 -1.03772,-0.83682 -2.30974,-1.25525 -3.81606,-1.25528 -1.50636,3e-5 -2.929,0.45193 -4.26796,1.35571 -1.3055,0.87035 -2.3432,2.07542 -3.11309,3.61521 -0.73644,1.53983 -1.10466,4.13408 -1.10465,7.78275 l 0,11.29753 -3.41437,0 0,-26.66218 m 47.07306,0 3.41437,0 0,4.61943 c 2.37666,-3.54824 5.4228,-5.32236 9.13845,-5.32239 1.97496,3e-5 3.73236,0.56909 5.27218,1.70718 1.57326,1.10468 2.6277,2.67796 3.16332,4.71986 1.10462,-2.07537 2.51053,-3.6654 4.21774,-4.77007 1.70715,-1.10462 3.6654,-1.65694 5.87472,-1.65697 2.24273,3e-5 4.26792,0.87036 6.07556,2.61099 1.80757,1.7072 2.71137,5.10483 2.71141,10.19288 l 0,14.56127 -3.51479,0 0,-14.56127 c -4e-5,-2.4436 -0.15067,-4.23446 -0.4519,-5.3726 -0.30131,-1.17158 -0.95405,-2.14233 -1.95824,-2.91225 -1.00426,-0.80336 -2.34322,-1.20505 -4.0169,-1.20508 -1.64027,3e-5 -3.18008,0.55235 -4.61944,1.65698 -1.43942,1.10467 -2.4269,2.51058 -2.96246,4.21774 -0.53561,1.7072 -0.80341,4.28471 -0.80338,7.73253 l 0,10.44395 -3.36416,0 0,-13.65747 c -2e-5,-2.84528 -0.15065,-4.87047 -0.4519,-6.07556 -0.30129,-1.23852 -0.97077,-2.25948 -2.00845,-3.06289 -1.03771,-0.83682 -2.30974,-1.25525 -3.81605,-1.25528 -1.50636,3e-5 -2.92901,0.45193 -4.26796,1.35571 -1.30551,0.87035 -2.3432,2.07542 -3.11309,3.61521 -0.73644,1.53983 -1.10466,4.13408 -1.10466,7.78275 l 0,11.29753 -3.41437,0 0,-26.66218 m 47.12327,-2.75349 3.61521,0 0,29.41567 -3.61521,0 0,-29.41567 m -129.81425,-3.92714 0,-3.51479 167.10295,0 0,3.51479 -17.32424,0 0,33.34281 -3.66542,0 0,-33.34281 -146.11329,0"
       id="text2383"
       sodipodi:nodetypes="ccccssscsccccsscsssccccccscscscccccscscssccccsccsscccccccsssccccccscccccccccsccsscccccccsssccccccscccccccccccccccccccc"
       inkscape:connector-curvature="0" />
  </g>
</svg>
